<svg xmlns="http://www.w3.org/2000/svg" width="420" height="120" viewBox="0 0 420 120">
  <g>
    <path d="M68.28,8.19c-2.06,10.84-3.76,22-7.87,31-7-5.26,4.13-14.54-.69-22.49-10.95.61-13.51,9.64-18.95,14.76C28.59,49.36,13.65,68.27,14,95.32c.88,2.07,1.65,4.25,3.14,5.76,2.19,3.28,7.78,3.44,10.23,6.48,16.29,4.16,29.06-2.32,43.25-4.32-.67,6.11-8.79,5.4-12.59,8.64A141.73,141.73,0,0,1,40,115.48c-5.18.18-8.58-1.26-14.16-.72-10.39-4.16-19.69-9.33-21.23-21.6,3.19-39.32,27.13-59.65,45.61-85,2-.77,2.92-2.6,5.5-2.88a3.81,3.81,0,0,1,2.36-2.16C63.68,2.79,65.92,5.55,68.28,8.19Z" fill="#fff" fill-rule="evenodd"/>
    <path d="M182.82,7.53c.37,3.09-1,4.47-1.09,7.08A123.27,123.27,0,0,0,171.38,25c-6.93,5.23-16.22,8.12-20.15,16.34,6.49,11.42,33.29,5.05,46.3,8.18,3.14-.06,4.09,2.07,7.08,2.17,1.07-6.19-.81-14-.54-21.24-.45-6.34-5.53-16.34-1.09-20.7,5.05.22,5.52,5,6.53,9.26.56,10.88,2,20.84,2.73,31.59-.6,1.59-.49,3.87-1.09,5.45a65.89,65.89,0,0,1,2.18,13.62c.67,7.19,7.27,13.46,5.44,19.61-3.75.85-3.34-2.47-6-2.72-2.12-7.69-5.65-14-6.53-22.88-3.26.28-5.88,5.68-8.18,8.71-8.18,7.44-18.15,13.08-27.23,19.61-9.49,3.77-16.83,9.69-25.6,14.17-3.46,3.08-7.92,5.16-12.53,7.08-3.6,1.53-10.31,6.4-13.62,1.63.26-4.87,6.39-8.46,10.89-10.89.15,2.26-.71,2.12,0,3.81,9.75-3.32,15.94-10.2,25.61-13.61C167.3,86.79,179,79.43,189.9,71.26c2.87-5.12,8.09-7.88,10.9-13.07-1.64-4.9-10.66-2.42-15.26-4.36-10.77.25-21.11.05-29.95-1.63-4.22-2.69-10.08-3.73-12-8.72.4-1.66-.94-1.6-.54-3.27,4.19-8.69,13.16-12.62,20.7-18,3.57-3.69,8.07-6.45,11.43-10.35-2.24-4.08-9.79-.9-14.7-2.18-12.68,1.69-22.88,2.52-32.14,7.63-1.71.83-1.19,3.89-3.82,3.81q-5.46-.25-6.53-4.9c6.06-8.53,21.7-10.19,33.77-10.9C160.75,3,176.62,2.34,182.82,7.53Z" fill="#fff" fill-rule="evenodd"/>
    <path d="M282.51,17.88c2.78.31,1.31,4.86,3.26,6,1.84,14.5-1.56,25.7-2.17,39.22a10.32,10.32,0,0,0,6,7.09c6.33-.21,10.85-2.24,15.8-3.81,4.06-3,9.74-4.42,13.62-7.63,4.91-1.23,9.22-7.13,14.7-4.36-2.65,9.88-12.76,12.29-20.15,17.43-6.72,5.82-16,9.11-21.25,16.34,32.93-7,65.18-15.85,98.6-20.7,3.13-.14,6.94.41,9.26-.54,5.06,1.47,13.87-.8,15.25,4.35-2,3.41-10.57.92-13.07,1.09-21.21,1-39.61,7.6-58.29,9.27-6.48,3.68-16.63,3.7-23.43,7.08-7.93.41-13.94,2.76-20.69,4.35-6.06.6-15.25,5.8-18-1.09.73-8.16,8.13-9.65,11.44-15.25a22.23,22.23,0,0,1-12.53-4.36c-1.61-2.56-2.94-5.41-4.36-8.17.6-16.33,4.61-29.64,1.09-44.67C279.24,19,280,17.59,282.51,17.88Z" fill="#fff" fill-rule="evenodd"/>
    <path d="M135.43,32.05c4.76,4.13,3.4,14.38,4.36,22.33,1.38,7.51,1.38,16.41,3.27,23.42v4.9c1,5,3,9,3.81,14.17-6.74,1.69-7.11-7.32-9.26-12-1.32-17.72-5.35-33.19-5.45-50.66.47.11.52-.21.55-.54a2.71,2.71,0,0,1,1.63-1.63Z" fill="#fff" fill-rule="evenodd"/>
    <path d="M252.55,77.8c3.52-5.55,6.12-12,10.89-16.34,6.08-.84,10.68,2.16,8.72,7.62-8.25-.82-12,5.72-12.53,14.17-.22,2.21,2.32,1.67,2.72,3.27,9.22,1.82,11.49-7.42,18-4.9-.14,6.21-7.94,4.77-10.35,8.71-3.05.4-4.79,2.11-8.72,1.63a12.62,12.62,0,0,1-8.17-6.53c-5.6.33-6-4.53-9.8-6-8.43,2-17.57,4.66-20.7-3.8-.69-7.78,2-12.13,3.81-17.44,9.06-7.88,21.17,2.42,20.7,14.16C248.56,74.53,249.92,76.8,252.55,77.8ZM234,62.55c-2.89,2-6,8.37-3.26,12.53,4.64-.08,7.19-2.25,10.89-3.27C241.86,66,237.5,64.7,234,62.55Z" fill="#fff" fill-rule="evenodd"/>
    <path d="M93.74,97.75c0,5.32-6.62,5.26-10.51,3.51,0-.83.1-1.66-.58-1.76C81.75,93.37,92.57,93.61,93.74,97.75Z" fill="#fff" fill-rule="evenodd"/>
  </g>
</svg>
